PathFileType	4	(X/Y/Z)	C:\Users\WrightLab\Desktop\Jo\P4V127.trc
DataRate	CameraRate	NumFrames	NumMarkers	Units	OrigDataRate	OrigDataStartFrame	OrigNumFrames
100.00	100.00	       13	19	mm	100.00	562	       642
Frame#	Time	Headset_Front			Headset_Back			Headset_Left			Headset_Right			Left_Shoulder			Right_Shoulder			Sternum			C7			Left Elbow			Right Elbow			Left Wrist			Right Wrist			Left ASIS			Right ASIS			S2			Left Knee			Right Knee			Left Ankle			Right Ankle			
		X1	Y1	Z1	X2	Y2	Z2	X3	Y3	Z3	X4	Y4	Z4	X5	Y5	Z5	X6	Y6	Z6	X7	Y7	Z7	X8	Y8	Z8	X9	Y9	Z9	X10	Y10	Z10	X11	Y11	Z11	X12	Y12	Z12	X13	Y13	Z13	X14	Y14	Z14	X15	Y15	Z15	X16	Y16	Z16	X17	Y17	Z17	X18	Y18	Z18	X19	Y19	Z19	

562	5.610	-69.51897	1734.33997	2217.28467	119.69421	1758.73865	2126.04541							170.64816	1559.65894	2135.09106				-7.50190	1502.03674	2154.52197				274.88809	1216.13843	2249.28467	-205.87465	1203.31409	1905.20068	164.21910	964.98975	2396.78247	-287.68433	933.90887	2033.41382	148.35361	1061.75610	2215.74951	-164.23854	1066.11804	2103.85229				201.18146	586.89996	2130.06812	-190.39899	596.38611	2181.07959	233.58925	136.09679	1861.40662	-126.21569	103.61392	2233.24854	
563	5.620	-73.89056	1734.97998	2221.49512	115.45321	1759.68201	2130.45581							166.00957	1560.77393	2140.76514				-12.43951	1503.04431	2159.60742				270.74265	1216.95605	2253.10010	-210.51849	1203.60950	1911.41272	162.33717	963.11902	2398.45117	-292.54379	934.42395	2039.36487	143.49303	1061.83435	2221.65063	-168.97650	1067.88171	2109.30908				197.35677	587.28192	2140.43872	-195.93370	597.03223	2186.74121	233.29311	140.06604	1863.46265	-126.76439	103.54035	2234.01221	
564	5.630	-78.65356	1736.27979	2226.09521	110.73820	1760.31592	2135.51172							161.70615	1561.39099	2146.28076				-16.87717	1503.58643	2164.76196				266.93915	1218.04626	2256.70605	-215.12392	1204.04114	1917.29175	161.26283	961.27234	2399.82568	-297.34381	933.57996	2043.63403	138.37331	1061.93799	2227.85547	-174.62878	1068.81982	2115.02319				192.63274	586.14490	2149.08960	-201.52249	597.76910	2191.34937	232.41595	144.94673	1865.33362	-127.25607	103.47559	2234.69653	
565	5.640	-83.06967	1737.01099	2230.61450	106.54743	1761.39514	2140.35815							157.00053	1563.02771	2151.89282				-21.43124	1505.10022	2169.92651				263.06366	1218.25244	2259.92700	-220.03137	1204.33960	1924.01318	160.48453	959.57086	2400.38257	-302.22711	934.65729	2050.00635	133.08150	1062.37329	2234.04102	-179.10822	1069.46094	2119.60938				187.83894	586.29279	2159.91162	-206.64908	598.56104	2195.18921	232.17133	149.70955	1869.33240	-127.30964	103.62703	2234.76367	
566	5.650	-87.66250	1738.00049	2234.72559	101.83652	1761.61450	2145.23706							152.07664	1564.10107	2157.77759				-25.92069	1505.54504	2175.92480				259.84854	1217.98584	2262.30444	-224.70010	1204.81360	1929.11389	159.00667	958.25140	2402.14575	-306.33029	934.56512	2056.18018	127.81202	1062.89587	2240.74365	-183.87762	1070.98230	2125.59033				183.61597	586.75983	2172.20093	-210.88510	598.81384	2199.72681	231.36601	155.63286	1873.91223	-127.70023	104.70043	2233.75488	
567	5.660	-91.98927	1738.54150	2239.13232	97.16001	1762.39038	2149.09888							147.69138	1564.13757	2162.28442				-30.52486	1505.85400	2181.08765				256.71573	1218.78308	2266.47363	-229.49025	1205.02832	1934.80237	158.01616	956.81555	2404.00879	-310.92853	935.09772	2063.01758	122.67060	1063.18213	2247.03784	-189.21524	1071.57117	2130.22778				178.45216	585.94958	2182.49072	-213.48282	598.52917	2203.74048	229.78346	161.46057	1875.94360				
568	5.670	-97.02670	1739.59924	2244.16797	92.57917	1762.81860	2153.91235							143.02994	1564.87866	2167.10645				-34.95687	1506.84412	2186.16846				253.49620	1219.52649	2270.59692	-234.17751	1205.53394	1940.59949	157.24225	955.35437	2404.89233	-315.74399	935.87823	2068.96313	117.83681	1063.41028	2252.81763	-193.87936	1072.20264	2134.76270				174.28552	584.63763	2193.50049	-215.54395	598.08856	2207.13721	228.30533	167.88750	1880.75793				
569	5.680	-101.46114	1740.39160	2248.23560	88.19673	1763.40479	2158.77441							138.51816	1565.18628	2172.48242				-39.45410	1507.12280	2190.94482				250.63458	1219.96484	2274.29028	-239.34065	1205.68066	1947.04260	156.33250	953.93768	2406.60425	-320.98062	935.94794	2075.32520	112.73534	1063.36865	2258.37598	-198.60634	1073.66101	2140.64673				169.68175	583.07739	2205.11523	-217.32051	597.98773	2210.43213	226.05521	175.26646	1884.61206				
570	5.690	-105.97463	1741.21960	2252.77881	83.88371	1763.74487	2163.92725							134.04581	1565.76111	2177.34033				-44.05264	1507.06213	2196.41333				246.64697	1219.68408	2274.56323	-244.25113	1205.97229	1952.46179	155.23979	952.98480	2408.01367	-324.95001	935.88879	2080.84375	108.17745	1063.38940	2263.05225	-203.20699	1073.23438	2143.87842				162.93854	582.85120	2217.40845	-219.48097	597.56604	2213.20337	223.76196	183.06711	1889.46423				
571	5.700	-110.73195	1742.37109	2257.85547	79.57774	1764.70605	2168.61499							129.72336	1565.81580	2182.47827				-47.87556	1507.22974	2201.27246				245.03520	1220.05017	2280.38354	-249.27017	1206.21631	1958.14368	154.28069	951.80463	2409.18335	-329.55347	936.97577	2088.20508	103.24377	1063.98047	2268.18311	-207.82176	1074.09961	2148.42139				158.69804	583.00018	2232.40552	-221.30095	597.17462	2217.35425	221.31566	191.79166	1893.89844				
572	5.710	-115.29846	1743.12646	2262.55957	74.79985	1765.09143	2173.71216							125.75809	1566.36975	2187.80029				-52.59337	1508.03088	2207.11230				242.06659	1220.48413	2282.87988	-254.02916	1206.79114	1964.03394	153.55710	950.45038	2410.89355	-334.36377	938.21857	2096.09399	99.19451	1063.80310	2272.83398	-211.76019	1074.68921	2153.33228				152.81876	581.75439	2244.12476	-223.08623	597.54120	2220.51001	218.51454	200.35573	1900.12512				
573	5.720	-119.81694	1744.06140	2267.06152	70.53642	1765.25916	2178.06763							121.78677	1567.17297	2193.07690				-56.18742	1508.03442	2211.52148				239.71919	1220.98572	2286.56860	-259.36163	1207.21533	1970.03760	152.10696	949.97357	2412.58521	-338.39844	939.21747	2102.26416	94.98136	1064.12561	2277.83569	-215.93835	1075.23865	2157.09448				147.24837	581.59338	2258.44092	-225.25929	597.44043	2222.85205	215.35542	209.10345	1906.14075				
574	5.730	-124.09177	1744.86182	2271.70605	66.62027	1765.93530	2182.48779							117.61323	1567.63574	2197.96289				-60.37288	1508.43469	2217.74780				236.91844	1221.76526	2289.62842	-264.30957	1207.59082	1976.12744	151.50902	948.47125	2413.44800	-342.60965	939.67523	2108.92456	91.39255	1064.72705	2281.92383	-219.72107	1075.94312	2160.33496				141.13567	580.71881	2271.91309	-227.34157	597.42047	2225.28613	211.84612	218.88800	1914.17822				
